<svg width="21" height="18" viewBox="0 0 21 18" fill="none" xmlns="http://www.w3.org/2000/svg">
    <style>
        @media (prefers-color-scheme: dark) {
        .t { fill: #ECF0F1 }
        }
    </style>
    <path class="t" d="M5.472 3.368H0.096V0.199999H14.736V3.368H9.36V17H5.472V3.368Z" fill="#2F3640"/>
    <path d="M17.9799 17.192C17.3239 17.192 16.7719 16.968 16.3239 16.52C15.8759 16.072 15.6519 15.512 15.6519 14.84C15.6519 14.152 15.8759 13.6 16.3239 13.184C16.7719 12.752 17.3239 12.536 17.9799 12.536C18.6359 12.536 19.1879 12.752 19.6359 13.184C20.0839 13.6 20.3079 14.152 20.3079 14.84C20.3079 15.512 20.0839 16.072 19.6359 16.52C19.1879 16.968 18.6359 17.192 17.9799 17.192Z" fill="#F1C40F"/>
</svg>
